# xmcd
#
# Track frame offsets:
#	150
#	18340
#	55020
#	63720
#	83595
#	94095
#	110895
#	123793
#	140225
#	150563
#	183120
#	197063
#	217178
#	250308
#
# Disc length: 3844
#
# Revision: 1
# Processed by: cddbd v1.5.1PL0 Copyright (c) Steve Scherf et al.
# Submitted via: CDex 1.51
# Normalized: r0:TRMNUM
#
DISCID=c60f020e
DTITLE=John Lewis - J.S.Bach - Preludes And Fugues from WTC Vol.4
DYEAR=1989
DGENRE=Jazz
TTITLE0=Prelude No. 12
TTITLE1=Fugue No. 12
TTITLE2=Prelude No. 14
TTITLE3=Fugue No. 14
TTITLE4=Prelude No. 17
TTITLE5=Fugue No. 17
TTITLE6=Prelude No. 18
TTITLE7=Fugue No. 18
TTITLE8=Prelude No. 20
TTITLE9=Fugue No. 20
TTITLE10=Prelude No. 23
TTITLE11=Fugue No. 23
TTITLE12=Prelude No. 24
TTITLE13=Fugue No. 24
EXTD=YEAR: 1989
EXTT0=
EXTT1=
EXTT2=
EXTT3=
EXTT4=
EXTT5=
EXTT6=
EXTT7=
EXTT8=
EXTT9=
EXTT10=
EXTT11=
EXTT12=
EXTT13=
PLAYORDER=
